<svg xmlns="http://www.w3.org/2000/svg" xmlns:xlink="http://www.w3.org/1999/xlink" width="200" zoomAndPan="magnify" viewBox="0 0 150 37.5" height="50" preserveAspectRatio="xMidYMid meet" version="1.0"><defs><g/><clipPath id="723eea53b9"><path d="M 0.988281 0 L 149 0 L 149 36.992188 L 0.988281 36.992188 Z M 0.988281 0 " clip-rule="nonzero"/></clipPath><clipPath id="09ed15809c"><path d="M 2.46875 0 L 147.53125 0 C 148.351562 0 149.011719 0.664062 149.011719 1.480469 L 149.011719 35.515625 C 149.011719 36.332031 148.351562 36.992188 147.53125 36.992188 L 2.46875 36.992188 C 1.648438 36.992188 0.988281 36.332031 0.988281 35.515625 L 0.988281 1.480469 C 0.988281 0.664062 1.648438 0 2.46875 0 Z M 2.46875 0 " clip-rule="nonzero"/></clipPath><clipPath id="b93b840f6f"><path d="M 1.007812 0 L 149 0 L 149 37 L 1.007812 37 Z M 1.007812 0 " clip-rule="nonzero"/></clipPath><clipPath id="112961f630"><path d="M 2.488281 0 L 147.511719 0 C 148.328125 0 148.992188 0.664062 148.992188 1.480469 L 148.992188 35.503906 C 148.992188 36.320312 148.328125 36.984375 147.511719 36.984375 L 2.488281 36.984375 C 1.671875 36.984375 1.007812 36.320312 1.007812 35.503906 L 1.007812 1.480469 C 1.007812 0.664062 1.671875 0 2.488281 0 Z M 2.488281 0 " clip-rule="nonzero"/></clipPath><clipPath id="1b140fdef7"><path d="M 3.625 2.738281 L 74.003906 2.738281 L 74.003906 34.253906 L 3.625 34.253906 Z M 3.625 2.738281 " clip-rule="nonzero"/></clipPath><clipPath id="58c264b66e"><path d="M 3.625 2.738281 L 73.9375 2.738281 L 73.9375 34.25 L 3.625 34.25 Z M 3.625 2.738281 " clip-rule="nonzero"/></clipPath></defs><g clip-path="url(#723eea53b9)"><g clip-path="url(#09ed15809c)"><path fill="#ffffff" d="M 0.988281 0 L 148.964844 0 L 148.964844 36.992188 L 0.988281 36.992188 Z M 0.988281 0 " fill-opacity="1" fill-rule="nonzero"/></g></g><g clip-path="url(#b93b840f6f)"><g clip-path="url(#112961f630)"><path stroke-linecap="butt" transform="matrix(0.740132, 0, 0, 0.740132, 1.008215, 0.000000986842)" fill="none" stroke-linejoin="miter" d="M 1.999734 -0.00000133333 L 197.942507 -0.00000133333 C 199.045563 -0.00000133333 199.942785 0.897221 199.942785 2.000276 L 199.942785 47.96972 C 199.942785 49.072775 199.045563 49.969998 197.942507 49.969998 L 1.999734 49.969998 C 0.896678 49.969998 -0.00054384 49.072775 -0.00054384 47.96972 L -0.00054384 2.000276 C -0.00054384 0.897221 0.896678 -0.00000133333 1.999734 -0.00000133333 Z M 1.999734 -0.00000133333 " stroke="#000000" stroke-width="2" stroke-opacity="1" stroke-miterlimit="4"/></g></g><g clip-path="url(#1b140fdef7)"><path fill="#000000" d="M 3.625 2.738281 L 74.042969 2.738281 L 74.042969 34.253906 L 3.625 34.253906 Z M 3.625 2.738281 " fill-opacity="1" fill-rule="nonzero"/></g><g clip-path="url(#58c264b66e)"><path stroke-linecap="butt" transform="matrix(0.740132, 0, 0, 0.740132, 3.623492, 2.738892)" fill="none" stroke-linejoin="miter" d="M 0.00203768 -0.000825229 L 95.075924 -0.000825229 L 95.075924 42.575007 L 0.00203768 42.575007 Z M 0.00203768 -0.000825229 " stroke="#000000" stroke-width="2" stroke-opacity="1" stroke-miterlimit="4"/></g><g fill="#ffffff" fill-opacity="1"><g transform="translate(7.717584, 26.008915)"><g><path d="M 1.125 -0.34375 L 2.484375 -0.671875 L 2.484375 -15.140625 L 1.125 -15.484375 L 1.125 -15.828125 L 7.46875 -15.828125 C 9.96875 -15.828125 11.757812 -15.414062 12.84375 -14.59375 C 13.925781 -13.769531 14.46875 -12.5625 14.46875 -10.96875 C 14.46875 -9.363281 13.925781 -8.148438 12.84375 -7.328125 C 11.757812 -6.515625 9.96875 -6.109375 7.46875 -6.109375 L 6.21875 -6.109375 L 6.21875 -0.671875 L 7.578125 -0.34375 L 7.578125 0 L 1.125 0 Z M 7.46875 -6.671875 C 8.414062 -6.671875 9.175781 -7.03125 9.75 -7.75 C 10.332031 -8.476562 10.625 -9.550781 10.625 -10.96875 C 10.625 -12.363281 10.332031 -13.425781 9.75 -14.15625 C 9.175781 -14.894531 8.414062 -15.265625 7.46875 -15.265625 L 6.21875 -15.265625 L 6.21875 -6.671875 Z M 7.46875 -6.671875 "/></g></g></g><g fill="#ffffff" fill-opacity="1"><g transform="translate(22.983023, 26.008915)"><g><path d="M 8.359375 0.34375 C 6.890625 0.34375 5.597656 0.0234375 4.484375 -0.609375 C 3.378906 -1.253906 2.523438 -2.195312 1.921875 -3.4375 C 1.316406 -4.675781 1.015625 -6.164062 1.015625 -7.90625 C 1.015625 -9.65625 1.316406 -11.148438 1.921875 -12.390625 C 2.523438 -13.628906 3.378906 -14.566406 4.484375 -15.203125 C 5.597656 -15.847656 6.890625 -16.171875 8.359375 -16.171875 C 9.835938 -16.171875 11.128906 -15.847656 12.234375 -15.203125 C 13.347656 -14.566406 14.207031 -13.628906 14.8125 -12.390625 C 15.414062 -11.148438 15.71875 -9.65625 15.71875 -7.90625 C 15.71875 -6.164062 15.414062 -4.675781 14.8125 -3.4375 C 14.207031 -2.195312 13.347656 -1.253906 12.234375 -0.609375 C 11.128906 0.0234375 9.835938 0.34375 8.359375 0.34375 Z M 8.359375 -0.109375 C 8.953125 -0.109375 9.5 -0.359375 10 -0.859375 C 10.507812 -1.359375 10.925781 -2.1875 11.25 -3.34375 C 11.582031 -4.507812 11.75 -6.03125 11.75 -7.90625 C 11.75 -9.789062 11.582031 -11.3125 11.25 -12.46875 C 10.925781 -13.632812 10.507812 -14.46875 10 -14.96875 C 9.5 -15.46875 8.953125 -15.71875 8.359375 -15.71875 C 7.773438 -15.71875 7.226562 -15.46875 6.71875 -14.96875 C 6.21875 -14.46875 5.800781 -13.632812 5.46875 -12.46875 C 5.132812 -11.3125 4.96875 -9.789062 4.96875 -7.90625 C 4.96875 -6.03125 5.132812 -4.507812 5.46875 -3.34375 C 5.800781 -2.1875 6.21875 -1.359375 6.71875 -0.859375 C 7.226562 -0.359375 7.773438 -0.109375 8.359375 -0.109375 Z M 8.359375 -0.109375 "/></g></g></g><g fill="#ffffff" fill-opacity="1"><g transform="translate(39.718464, 26.008915)"><g><path d="M 1.125 -0.34375 L 2.484375 -0.671875 L 2.484375 -15.140625 L 1.125 -15.484375 L 1.125 -15.828125 L 7.125 -15.828125 C 9.6875 -15.828125 11.53125 -15.4375 12.65625 -14.65625 C 13.789062 -13.882812 14.359375 -12.804688 14.359375 -11.421875 C 14.359375 -10.484375 14.109375 -9.722656 13.609375 -9.140625 C 13.109375 -8.566406 12.46875 -8.132812 11.6875 -7.84375 C 10.863281 -7.53125 9.984375 -7.363281 9.046875 -7.34375 L 9.046875 -7.234375 C 9.597656 -7.203125 10.085938 -7.117188 10.515625 -6.984375 C 11.566406 -6.648438 12.28125 -6.054688 12.65625 -5.203125 L 14.703125 -0.671875 L 15.828125 -0.34375 L 15.828125 0 L 12.65625 0 C 11.425781 0 10.523438 -0.640625 9.953125 -1.921875 L 7.6875 -7.015625 L 6.21875 -7.015625 L 6.21875 -0.671875 L 7.796875 -0.34375 L 7.796875 0 L 1.125 0 Z M 7.125 -7.578125 C 8.175781 -7.578125 9.003906 -7.90625 9.609375 -8.5625 C 10.210938 -9.226562 10.515625 -10.179688 10.515625 -11.421875 C 10.515625 -12.648438 10.210938 -13.597656 9.609375 -14.265625 C 9.003906 -14.929688 8.175781 -15.265625 7.125 -15.265625 L 6.21875 -15.265625 L 6.21875 -7.578125 Z M 7.125 -7.578125 "/></g></g></g><g fill="#ffffff" fill-opacity="1"><g transform="translate(55.549286, 26.008915)"><g><path d="M 3.953125 -0.34375 L 5.3125 -0.671875 L 5.3125 -15.265625 L 2.71875 -15.265625 C 2.71875 -14.335938 2.46875 -13.453125 1.96875 -12.609375 C 1.757812 -12.265625 1.519531 -11.976562 1.25 -11.75 L 0.5625 -11.75 L 0.5625 -15.828125 L 13.796875 -15.828125 L 13.796875 -11.75 L 13.109375 -11.75 C 12.828125 -11.976562 12.582031 -12.265625 12.375 -12.609375 C 11.882812 -13.429688 11.640625 -14.316406 11.640625 -15.265625 L 9.046875 -15.265625 L 9.046875 -0.671875 L 10.40625 -0.34375 L 10.40625 0 L 3.953125 0 Z M 3.953125 -0.34375 "/></g></g></g><g fill="#000000" fill-opacity="1"><g transform="translate(76.983081, 26.015139)"><g><path d="M 1.125 -0.34375 L 2.484375 -0.671875 L 2.484375 -15.140625 L 1.125 -15.484375 L 1.125 -15.828125 L 13.21875 -15.828125 L 13.21875 -11.75 L 12.546875 -11.75 C 12.265625 -11.976562 12.015625 -12.265625 11.796875 -12.609375 C 11.316406 -13.429688 11.078125 -14.316406 11.078125 -15.265625 L 6.21875 -15.265625 L 6.21875 -8.140625 L 8.8125 -8.140625 C 8.914062 -8.710938 9.113281 -9.25 9.40625 -9.75 C 9.53125 -9.96875 9.671875 -10.1875 9.828125 -10.40625 L 10.515625 -10.40625 L 10.515625 -5.3125 L 9.828125 -5.3125 C 9.671875 -5.519531 9.53125 -5.738281 9.40625 -5.96875 C 9.113281 -6.46875 8.914062 -7.003906 8.8125 -7.578125 L 6.21875 -7.578125 L 6.21875 -0.671875 L 7.578125 -0.34375 L 7.578125 0 L 1.125 0 Z M 1.125 -0.34375 "/></g></g></g><g fill="#000000" fill-opacity="1"><g transform="translate(90.778513, 26.015139)"><g><path d="M 8.359375 0.34375 C 6.890625 0.34375 5.597656 0.0234375 4.484375 -0.609375 C 3.378906 -1.253906 2.523438 -2.195312 1.921875 -3.4375 C 1.316406 -4.675781 1.015625 -6.164062 1.015625 -7.90625 C 1.015625 -9.65625 1.316406 -11.148438 1.921875 -12.390625 C 2.523438 -13.628906 3.378906 -14.566406 4.484375 -15.203125 C 5.597656 -15.847656 6.890625 -16.171875 8.359375 -16.171875 C 9.835938 -16.171875 11.128906 -15.847656 12.234375 -15.203125 C 13.347656 -14.566406 14.207031 -13.628906 14.8125 -12.390625 C 15.414062 -11.148438 15.71875 -9.65625 15.71875 -7.90625 C 15.71875 -6.164062 15.414062 -4.675781 14.8125 -3.4375 C 14.207031 -2.195312 13.347656 -1.253906 12.234375 -0.609375 C 11.128906 0.0234375 9.835938 0.34375 8.359375 0.34375 Z M 8.359375 -0.109375 C 8.953125 -0.109375 9.5 -0.359375 10 -0.859375 C 10.507812 -1.359375 10.925781 -2.1875 11.25 -3.34375 C 11.582031 -4.507812 11.75 -6.03125 11.75 -7.90625 C 11.75 -9.789062 11.582031 -11.3125 11.25 -12.46875 C 10.925781 -13.632812 10.507812 -14.46875 10 -14.96875 C 9.5 -15.46875 8.953125 -15.71875 8.359375 -15.71875 C 7.773438 -15.71875 7.226562 -15.46875 6.71875 -14.96875 C 6.21875 -14.46875 5.800781 -13.632812 5.46875 -12.46875 C 5.132812 -11.3125 4.96875 -9.789062 4.96875 -7.90625 C 4.96875 -6.03125 5.132812 -4.507812 5.46875 -3.34375 C 5.800781 -2.1875 6.21875 -1.359375 6.71875 -0.859375 C 7.226562 -0.359375 7.773438 -0.109375 8.359375 -0.109375 Z M 8.359375 -0.109375 "/></g></g></g><g fill="#000000" fill-opacity="1"><g transform="translate(107.513954, 26.015139)"><g><path d="M 1.125 -0.34375 L 2.484375 -0.671875 L 2.484375 -15.140625 L 1.125 -15.484375 L 1.125 -15.828125 L 7.578125 -15.828125 L 7.578125 -15.484375 L 6.21875 -15.140625 L 6.21875 -0.5625 L 11.078125 -0.5625 C 11.078125 -1.507812 11.316406 -2.390625 11.796875 -3.203125 C 12.015625 -3.554688 12.265625 -3.84375 12.546875 -4.0625 L 13.21875 -4.0625 L 13.21875 0 L 1.125 0 Z M 1.125 -0.34375 "/></g></g></g><g fill="#000000" fill-opacity="1"><g transform="translate(121.309386, 26.015139)"><g><path d="M 1.125 0 L 1.125 -0.34375 L 2.484375 -0.671875 L 2.484375 -15.140625 L 1.125 -15.484375 L 1.125 -15.828125 L 7.578125 -15.828125 L 7.578125 -15.484375 L 6.21875 -15.140625 L 6.21875 -0.671875 L 7.578125 -0.34375 L 7.578125 0 Z M 1.125 0 "/></g></g></g><g fill="#000000" fill-opacity="1"><g transform="translate(130.01634, 26.015139)"><g><path d="M 8.359375 0.34375 C 6.890625 0.34375 5.597656 0.0234375 4.484375 -0.609375 C 3.378906 -1.253906 2.523438 -2.195312 1.921875 -3.4375 C 1.316406 -4.675781 1.015625 -6.164062 1.015625 -7.90625 C 1.015625 -9.65625 1.316406 -11.148438 1.921875 -12.390625 C 2.523438 -13.628906 3.378906 -14.566406 4.484375 -15.203125 C 5.597656 -15.847656 6.890625 -16.171875 8.359375 -16.171875 C 9.835938 -16.171875 11.128906 -15.847656 12.234375 -15.203125 C 13.347656 -14.566406 14.207031 -13.628906 14.8125 -12.390625 C 15.414062 -11.148438 15.71875 -9.65625 15.71875 -7.90625 C 15.71875 -6.164062 15.414062 -4.675781 14.8125 -3.4375 C 14.207031 -2.195312 13.347656 -1.253906 12.234375 -0.609375 C 11.128906 0.0234375 9.835938 0.34375 8.359375 0.34375 Z M 8.359375 -0.109375 C 8.953125 -0.109375 9.5 -0.359375 10 -0.859375 C 10.507812 -1.359375 10.925781 -2.1875 11.25 -3.34375 C 11.582031 -4.507812 11.75 -6.03125 11.75 -7.90625 C 11.75 -9.789062 11.582031 -11.3125 11.25 -12.46875 C 10.925781 -13.632812 10.507812 -14.46875 10 -14.96875 C 9.5 -15.46875 8.953125 -15.71875 8.359375 -15.71875 C 7.773438 -15.71875 7.226562 -15.46875 6.71875 -14.96875 C 6.21875 -14.46875 5.800781 -13.632812 5.46875 -12.46875 C 5.132812 -11.3125 4.96875 -9.789062 4.96875 -7.90625 C 4.96875 -6.03125 5.132812 -4.507812 5.46875 -3.34375 C 5.800781 -2.1875 6.21875 -1.359375 6.71875 -0.859375 C 7.226562 -0.359375 7.773438 -0.109375 8.359375 -0.109375 Z M 8.359375 -0.109375 "/></g></g></g></svg>